<svg width="1200" height="800" viewBox="-600 -400 1200 800" version="1.1" xmlns="http://www.w3.org/2000/svg" xmlns:xlink="http://www.w3.org/1999/xlink"><rect x="-600" y="-400" width="1200" height="800" fill="#FAA41B"/><g transform="scale(.4)"><path d="M.01 750a750 750 0 1 0-.02 0ZM-.01 525a525 525 0 1 1 .02 0ZM.01 242a242 242 0 1 0-.02 0ZM-.01 55a55 55 0 1 1 .02 0Z" fill="#C00"/><g fill="none" stroke="#FAA41B"><circle r="67" stroke-width="10"/><circle r="93" stroke-width="8"/><circle r="121" stroke-width="7"/><circle r="170" stroke-width="74"/><circle r="221" stroke-width="12"/><circle r="538.5" stroke-width="11"/><circle r="595" stroke-width="16"/><circle r="663" stroke-width="23.5"/><circle r="722.5" stroke-width="16"/></g><g fill="#FAA41B"><g id="layer1x3"><g id="layer1" stroke="#C00" stroke-width="7"><g stroke="none"><path d="M-73 461V418H73v43H44v29H-44V461Z" fill="#C00"/><path d="M-15 418V393H15v25Z"/></g><path d="M263.55 456.48A527.1 527.1 0 0 1 0 527.1V491.17H84.53a58 58 0 0 1 44.75-7.82 58 58 0 0 1 44.55-15.02l71.76-42.96Z"/><g id="column"><path d="M0 290v98c0 20.7 21.5 25.6 39 17.5V244Z"/><path d="M29.3 240V388c0 18 16.4 21.4 29.7 19.9a6.1 6.1 0 0 0 6-9.3 7.1 13 0 0 1-7.1-13V303.4a7.1 13 0 0 1 7.1-13v-10Z"/></g><use xlink:href="#column" transform="scale(-1,1)"/></g><use xlink:href="#layer1" transform="rotate(30)"/><use xlink:href="#layer1" transform="rotate(60)"/></g><use xlink:href="#layer1x3" transform="rotate(90)"/><use xlink:href="#layer1x3" transform="rotate(180)"/><use xlink:href="#layer1x3" transform="rotate(270)"/><g id="half"><g id="quarter"><g id="twelfth"><g stroke="#C00" stroke-width="6" stroke-linejoin="round"><path d="M-21.47 233.21a234 234 0 0 0 42.94 0 26.22 12.94 0 0 0-11 17.79c-16.03-17.89 33.89-25.86 16.47 15.93a15 15 0 0 0-7.15-8.02 19.5 24.6 50.3 0 1 .07 24.74C13.8 291.33 2.48 303.9-.11 310.59c-2.37-6.69-13.69-19.26-19.75-26.94a19.5 24.6 50.3 0 1 .07-24.74 15 15 0 0 0-7.15 8.02C-44.36 225.14 5.56 233.11-10.47 251a26.22 12.94 0 0 0-11-17.79Z" transform="rotate(15)"/><path d="M-75.62 425.3a8.63 8.63 0 0 1 .87-17.15 1200 1200 0 0 0 149.5 0 8.63 8.63 0 0 1 .87 17.15 1200 1200 0 0 1-151.24 0Zm-3.61 45.25a8.3 8.3 0 0 1-.15-16.6 1200 1200 0 0 0 158.76 0 8.3 8.3 0 0 1-.15 16.6 1200 1200 0 0 1-158.46 0ZM0 524-20.77 505.37a13 13 0 0 1-.13-17.7l-6.6 5.16a15 15 0 0 1-1.87-18.9H29.37a15 15 0 0 1-1.87 18.9l-6.6-5.16a13 13 0 0 1-.13 17.7Z"/><g stroke-width="7"><path d="M0 298.55c-5.5-10.45-17-19.4-22.12-28.53a8.17 13.26 0 0 1 1.18-20.5l-7.16 6.16a15 18.64 0 0 1-.67-23.7 233.76 233.76 0 0 0 57.54 0 15 18.64 0 0 1-.67 23.7l-7.16-6.16a8.17 13.26 0 0 1 1.18 20.5C17 279.15 5.5 288.1 0 298.55Z"/><circle id="c13_3" cy="441.6" r="13.3"/></g><g id="halfSeg"><path d="M72.14 471.85l-11.8 10.33a6.02 11.35 30 0 0-3.6 15.03 11.97 11.15 5 0 1 28.04.81A25.7 29.7-8 1 1 42.2 472.05Z"/><use xlink:href="#c13_3" x="26.5"/><use xlink:href="#c13_3" x="53" y="-1"/><use xlink:href="#c13_3" x="79.5" y="-2.4"/></g><use xlink:href="#halfSeg" transform="scale(-1,1)"/></g><g id="s3x3"><circle id="s3" cy="565.5" r="13.5"/><use xlink:href="#s3" transform="rotate(3.33)"/><use xlink:href="#s3" transform="rotate(6.67)"/></g><use xlink:href="#s3x3" transform="rotate(10)"/><use xlink:href="#s3x3" transform="rotate(20)"/><path id="s4" d="M17.4 130 22.2 168.9 0 187.4 -22.2 168.9" fill="none" stroke="#C00" stroke-width="5"/><use xlink:href="#s4" transform="rotate(15)"/></g><use xlink:href="#twelfth" transform="rotate(30)"/><use xlink:href="#twelfth" transform="rotate(60)"/><g id="twentieth"><path id="s1" d="M0 679.5a28.6 12.9 45 0 0 31 15 16.2 18.6-45 0 1-31 6 16.2 18.6 45 0 1-31-6 32 10-45 0 0 31-15Z"/><use xlink:href="#s1" transform="rotate(6)"/><use xlink:href="#s1" transform="rotate(12)"/></g><use xlink:href="#twentieth" transform="rotate(18)"/><use xlink:href="#twentieth" transform="rotate(36)"/><use xlink:href="#twentieth" transform="rotate(54)"/><use xlink:href="#twentieth" transform="rotate(72)"/><g id="sixteenth"><g id="s2"><circle id="r9" cy="626.5" r="9"/><path d="M21 642.5a5 7.75 0 0 1-.5-15.5 5 7.75 0 0 1-.5-15.5l40-3A5 7.75 0 0 1 61.5 624 5 7.75 0 0 1 63 639.5Zm9-21a5 5 0 0 0-1 9.5l23-.5a4.5 4.5 0 0 0-.5-10Z"/></g><use xlink:href="#s2" transform="rotate(7.5)"/><use xlink:href="#s2" transform="rotate(15)"/></g><use xlink:href="#sixteenth" transform="rotate(22.5)"/><use xlink:href="#sixteenth" transform="rotate(45)"/><use xlink:href="#sixteenth" transform="rotate(67.5)"/></g><use xlink:href="#quarter" transform="rotate(90)"/><g id="sltx3"><use id="s1t" xlink:href="#s1" transform="matrix(.41,0,0,.28,0,-87.6)"/><use xlink:href="#s1t" transform="rotate(25.71)"/><use xlink:href="#s1t" transform="rotate(51.43)"/></g><use xlink:href="#sltx3" transform="rotate(77.14)"/><use xlink:href="#s1t" transform="rotate(154.29)"/></g><use xlink:href="#half" transform="rotate(180)"/><circle id="c5" cy="-80.5" r="5"/><g id="c5x18"><g id="c5x6"><g id="c5x3"><use xlink:href="#c5" transform="rotate(9.73)"/><use xlink:href="#c5" transform="rotate(19.46)"/><use xlink:href="#c5" transform="rotate(29.19)"/></g><use xlink:href="#c5x3" transform="rotate(29.19)"/></g><use xlink:href="#c5x6" transform="rotate(58.38)"/><use xlink:href="#c5x6" transform="rotate(116.76)"/></g><use xlink:href="#c5x18" transform="scale(-1,1)"/></g></g></svg>